<svg width="24" height="24" viewBox="0 0 24 24" fill="none" xmlns="http://www.w3.org/2000/svg">
<g clip-path="url(#clip0_1162_1978)">
<path d="M12 2C14.717 2 15.056 2.01 16.122 2.06C17.187 2.11 17.912 2.277 18.55 2.525C19.21 2.779 19.766 3.123 20.322 3.678C20.831 4.178 21.224 4.783 21.475 5.45C21.722 6.087 21.89 6.813 21.94 7.878C21.987 8.944 22 9.283 22 12C22 14.717 21.99 15.056 21.94 16.122C21.89 17.187 21.722 17.912 21.475 18.55C21.225 19.218 20.831 19.823 20.322 20.322C19.822 20.83 19.217 21.224 18.55 21.475C17.913 21.722 17.187 21.89 16.122 21.94C15.056 21.987 14.717 22 12 22C9.283 22 8.944 21.99 7.878 21.94C6.813 21.89 6.088 21.722 5.45 21.475C4.782 21.224 4.178 20.831 3.678 20.322C3.169 19.822 2.776 19.218 2.525 18.55C2.277 17.913 2.11 17.187 2.06 16.122C2.013 15.056 2 14.717 2 12C2 9.283 2.01 8.944 2.06 7.878C2.11 6.812 2.277 6.088 2.525 5.45C2.775 4.782 3.169 4.177 3.678 3.678C4.178 3.169 4.782 2.776 5.45 2.525C6.088 2.277 6.812 2.11 7.878 2.06C8.944 2.013 9.283 2 12 2ZM12 7C10.674 7 9.402 7.527 8.464 8.464C7.527 9.402 7 10.674 7 12C7 13.326 7.527 14.598 8.464 15.536C9.402 16.473 10.674 17 12 17C13.326 17 14.598 16.473 15.536 15.536C16.473 14.598 17 13.326 17 12C17 10.674 16.473 9.402 15.536 8.464C14.598 7.527 13.326 7 12 7ZM18.5 6.75C18.5 6.418 18.368 6.101 18.134 5.866C17.899 5.632 17.582 5.5 17.25 5.5C16.918 5.5 16.601 5.632 16.366 5.866C16.132 6.101 16 6.418 16 6.75C16 7.082 16.132 7.399 16.366 7.634C16.601 7.868 16.918 8 17.25 8C17.582 8 17.899 7.868 18.134 7.634C18.368 7.399 18.5 7.082 18.5 6.75ZM12 9C12.796 9 13.559 9.316 14.121 9.879C14.684 10.441 15 11.204 15 12C15 12.796 14.684 13.559 14.121 14.121C13.559 14.684 12.796 15 12 15C11.204 15 10.441 14.684 9.879 14.121C9.316 13.559 9 12.796 9 12C9 11.204 9.316 10.441 9.879 9.879C10.441 9.316 11.204 9 12 9Z" fill="white"/>
</g>
<defs>
<clipPath id="clip0_1162_1978">
<rect width="20" height="20" fill="white" transform="translate(2 2)"/>
</clipPath>
</defs>
</svg>
