<svg width="232" height="142" viewBox="0 0 232 142" fill="none" xmlns="http://www.w3.org/2000/svg">
<path d="M22.407 118.759H57.3626V141.167H-0.000376013V6.44643e-05H57.3626V22.4075H22.407V58.2593H54.0015V78.426H22.407V118.759ZM102.853 6.44643e-05C107.932 6.44643e-05 112.19 0.672287 115.625 2.01673C119.061 3.36118 121.825 5.30315 123.916 7.84266C126.157 10.3822 127.725 13.4445 128.622 17.0297C129.667 20.4655 130.19 24.3495 130.19 28.6816V105.315C130.19 110.394 129.593 115.174 128.398 119.656C127.203 123.988 125.111 127.797 122.124 131.083C119.136 134.22 115.028 136.685 109.799 138.478C104.72 140.27 98.2223 141.167 90.305 141.167H64.9846V6.44643e-05H102.853ZM87.1679 22.4075V118.759H92.7698C96.6537 118.759 99.5667 118.386 101.509 117.639C103.6 116.892 105.094 115.846 105.99 114.502C106.886 113.157 107.409 111.514 107.559 109.572C107.708 107.63 107.783 105.464 107.783 103.074V32.0427C107.783 30.997 107.708 29.9513 107.559 28.9056C107.559 27.7106 107.335 26.6649 106.886 25.7686C106.588 24.7229 105.99 23.9013 105.094 23.3038C104.347 22.7062 103.152 22.4075 101.509 22.4075H87.1679ZM160.698 141.167H138.514V6.44643e-05H160.698V141.167ZM188.707 141.167V22.4075H167.644V6.44643e-05H231.953V22.4075H211.114V141.167H188.707Z" fill="#EDEDED"/>
</svg>
